Coordinates
version=1
nRows=10
nColumns=34
inDegrees=yes

Units are S.I. units (second, meters, Newtons, ...)
If the header above contains a line with 'inDegrees', this indicates whether rotational values are in degrees (yes) or radians (no).

endheader
time	pelvis_tilt	pelvis_list	pelvis_rotation	pelvis_tx	pelvis_ty	pelvis_tz	hip_flexion_r	hip_adduction_r	hip_rotation_r	knee_angle_r	ankle_angle_r	subtalar_angle_r	mtp_angle_r	hip_flexion_l	hip_adduction_l	hip_rotation_l	knee_angle_l	ankle_angle_l	subtalar_angle_l	mtp_angle_l	lumbar_extension	lumbar_bending	lumbar_rotation	arm_flex_r	arm_add_r	arm_rot_r	elbow_flex_r	pro_sup_r	arm_flex_l	arm_add_l	arm_rot_l	elbow_flex_l	pro_sup_l
     14.84166670	     -0.67295155	     -5.43927416	   -174.82360634	      0.11980805	      1.08346759	      0.15521300	     41.01978131	     -4.08495001	     -1.85390347	     29.04160980	    -12.14642469	     -4.72125477	      0.00000000	    -25.46598983	      5.50165783	      3.76967797	     39.29133707	    -23.26931685	    -14.12817119	      0.00000000	    -18.02939544	     -7.91321383	    -34.99214532	    -41.64089576	    -21.31693310	      1.95355612	     98.14124641	     91.86104259	     24.73547368	    -31.90471199	      7.28945559	    109.23925747	     77.32834710
     14.85000000	     -1.78458701	     -6.99475151	   -174.82749063	      0.11872086	      1.08482965	      0.15452261	     37.77228740	     -5.23501390	     -2.13040782	     22.68348665	    -13.12856727	     -0.99722873	      0.00000000	    -26.27636657	      6.67890856	      4.33233276	     44.22978592	    -23.41852337	    -17.97314913	      0.00000000	    -18.99891069	     -9.46272627	    -34.91818385	    -42.70363103	    -19.84107712	      0.98307886	     99.37987844	     92.28797044	     23.99194993	    -32.58023658	      8.98879420	    110.67653628	     77.08992120
     14.85833330	     -3.00271592	     -8.31846955	   -175.14393331	      0.11737792	      1.08542377	      0.15368547	     34.68478450	     -6.07519328	     -2.54581601	     17.54464980	    -13.62067404	      2.60282280	      0.00000000	    -27.06886281	      7.67547428	      4.34344798	     49.26589403	    -24.31560000	    -21.82314688	      0.00000000	    -20.06235678	    -10.76272958	    -33.62802410	    -43.96734913	    -17.58562136	     -0.82380657	    100.48300883	     93.59105084	     24.11580368	    -32.55959720	     11.84256975	    111.32727081	     76.26958835
     14.86666670	     -3.53280594	     -9.18591377	   -175.06249126	      0.11640071	      1.08430683	      0.15369291	     32.77035488	     -6.83981642	     -3.23021809	     14.14877573	    -13.45928517	      4.96376452	      0.00000000	    -26.79623477	      8.25632896	      4.64437146	     54.93444434	    -25.24574877	    -24.96869746	      0.00000000	    -20.62235519	    -11.37204928	    -33.29337225	    -44.16340295	    -16.11029237	     -1.57773312	    101.09519896	     94.04758212	     23.06785983	    -32.89381001	     14.15548641	    112.91381652	     76.10437870
     14.87500000	     -4.11866740	     -9.60286306	   -175.33504752	      0.11603597	      1.08201300	      0.15374152	     31.19034231	     -7.02518165	     -3.76202261	     12.13807218	    -13.22325748	      6.51584481	      0.00000000	    -26.36153966	      8.52222635	      4.48665181	     60.81351738	    -26.82816773	    -27.53345381	      0.00000000	    -21.26148161	    -11.45608515	    -32.43812752	    -43.74171471	    -14.77149529	     -2.29738971	    101.45780336	     94.45387669	     22.30750190	    -32.91450865	     15.86581225	    113.88029546	     75.94678859
     14.88333330	     -4.57156696	     -9.77642737	   -175.70202743	      0.11666444	      1.07872821	      0.15422747	     30.10644125	     -6.94424244	     -4.03172686	     11.37481037	    -12.45015111	      6.98192333	      0.00000000	    -25.40073901	      8.74342622	      4.29915801	     67.07064474	    -28.52203655	    -29.40032943	      0.00000000	    -21.86869033	    -11.03245255	    -31.32116812	    -42.79136052	    -13.58199188	     -3.02090258	    101.79413782	     94.86427879	     21.54548558	    -32.67455340	     17.58612094	    114.47663882	     75.80461922
     14.89166670	     -4.99860534	    -10.05275475	   -176.29731344	      0.11820732	      1.07464632	      0.15477326	     29.31231724	     -6.90156703	     -4.03899540	     11.56432329	    -11.35097828	      6.87300884	      0.00000000	    -24.02387812	      9.24538182	      3.87270221	     73.54043122	    -30.28520217	    -30.67361134	      0.00000000	    -22.40796434	    -10.82631129	    -29.34029381	    -41.87293097	    -11.80909794	     -4.47786888	    102.26823256	     96.21322041	     21.69206337	    -31.93674674	     20.03262147	    113.73854584	     75.23041199
     14.90000000	     -5.23135709	     -9.91875060	   -176.61642882	      0.12008857	      1.06933457	      0.15628194	     28.61423848	     -6.59500581	     -4.29482132	     12.29464118	    -10.70540636	      6.04549828	      0.00000000	    -22.00977250	      9.20130575	      3.36994055	     80.28503358	    -30.59586209	    -30.51641628	      0.00000000	    -22.85235045	     -9.89030501	    -28.05825535	    -40.03820611	    -11.32756417	     -4.80427571	    102.52210468	     96.43726831	     20.52978387	    -31.38059751	     21.21598438	    113.55542347	     75.17212965
     14.90833330	     -5.20547585	     -9.96122619	   -176.99861125	      0.12246307	      1.06245416	      0.15776176	     28.34337870	     -6.44494764	     -4.35676720	     13.85645642	     -9.73246100	      4.81252056	      0.00000000	    -19.47895512	      9.31149294	      2.72293253	     86.93981899	    -30.43966767	    -30.14425038	      0.00000000	    -23.08996473	     -9.22981886	    -26.48950473	    -38.05099369	    -10.71792430	     -5.33518164	    102.69879184	     96.68552732	     18.99534053	    -30.88674434	     22.24037472	    112.72623198	     75.10431121
     14.91666670	     -4.95717343	    -10.09771446	   -177.41255264	      0.12472980	      1.05540390	      0.15894789	     28.29257166	     -6.37655980	     -4.46401090	     15.98194624	     -8.97160421	      3.33168509	      0.00000000	    -16.44511942	      9.36588319	      1.93536529	     93.36738492	    -29.66197965	    -29.16719256	      0.00000000	    -23.07709728	     -8.93190299	    -24.76277143	    -35.78104541	    -10.20679099	     -5.67300676	    102.63471683	     97.06887567	     17.25311246	    -30.40308646	     23.14329895	    111.00897573	     75.04314609
